<mxfile host="www.draw.io" modified="2019-11-28T09:25:11.505Z" agent="Mozilla/5.0 (Windows NT 6.1; Win64; x64) AppleWebKit/537.36 (KHTML, like Gecko) Chrome/78.0.3904.108 Safari/537.36" etag="qqka6yF0NMeIFxkQRZQc" version="12.3.2" type="github" pages="1">
  <diagram id="F2t0CvAlyX9msotLTjHV" name="第 1 页">
    <mxGraphModel dx="1038" dy="572" grid="1" gridSize="10" guides="1" tooltips="1" connect="1" arrows="1" fold="1" page="1" pageScale="1" pageWidth="2339" pageHeight="3300" math="0" shadow="0">
      <root>
        <mxCell id="0"/>
        <mxCell id="1" parent="0"/>
        <mxCell id="jyvKhXXE0eLRTPu1VaxT-2" value="名称" style="fillColor=none;strokeColor=none;html=1;fontSize=11;fontStyle=0;align=center;fontColor=#596780;fontStyle=1;fontSize=11;labelPosition=center;verticalLabelPosition=middle;verticalAlign=middle;" vertex="1" parent="1">
          <mxGeometry x="65" y="155" width="60" height="20" as="geometry"/>
        </mxCell>
        <mxCell id="jyvKhXXE0eLRTPu1VaxT-3" value="FGStyle_XXX_XXX" style="rounded=1;arcSize=9;fillColor=#F7F8F9;align=left;spacingLeft=5;strokeColor=#DEE1E6;html=1;strokeWidth=2;fontSize=12" vertex="1" parent="1">
          <mxGeometry x="165" y="150" width="125" height="30" as="geometry"/>
        </mxCell>
        <mxCell id="jyvKhXXE0eLRTPu1VaxT-10" value="描述" style="fillColor=none;strokeColor=none;html=1;fontSize=11;fontStyle=0;align=center;fontColor=#596780;fontStyle=1;fontSize=11;labelPosition=center;verticalLabelPosition=middle;verticalAlign=middle;" vertex="1" parent="1">
          <mxGeometry x="340" y="155" width="60" height="20" as="geometry"/>
        </mxCell>
        <mxCell id="jyvKhXXE0eLRTPu1VaxT-11" value="符号键盘-副丝印" style="rounded=1;arcSize=9;fillColor=#F7F8F9;align=left;spacingLeft=5;strokeColor=#DEE1E6;html=1;strokeWidth=2;fontSize=12" vertex="1" parent="1">
          <mxGeometry x="440" y="150" width="125" height="30" as="geometry"/>
        </mxCell>
        <mxCell id="jyvKhXXE0eLRTPu1VaxT-16" value="Add" style="rounded=1;fillColor=#0057D8;strokeColor=none;fontColor=#ffffff;align=center;verticalAlign=middle;fontStyle=0;fontSize=14;html=1;shadow=0;dashed=0" vertex="1" parent="1">
          <mxGeometry x="690" y="150" width="60" height="33" as="geometry"/>
        </mxCell>
        <mxCell id="jyvKhXXE0eLRTPu1VaxT-18" value="" style="dashed=0;html=1;rounded=1;strokeColor=#6554C0;fontSize=12;align=center;fontStyle=1;strokeWidth=2;fontColor=#6554C0" vertex="1" parent="1">
          <mxGeometry x="80" y="610" width="680" height="110" as="geometry"/>
        </mxCell>
        <mxCell id="jyvKhXXE0eLRTPu1VaxT-24" value="符号键盘-副丝印" style="rounded=1;fillColor=#F1F2F4;strokeColor=none;html=1;fontColor=#596780;align=center;verticalAlign=middle;fontStyle=0;fontSize=12" vertex="1" parent="1">
          <mxGeometry x="110" y="640" width="86" height="33" as="geometry"/>
        </mxCell>
        <mxCell id="jyvKhXXE0eLRTPu1VaxT-25" value="xxx" style="rounded=1;fillColor=#F1F2F4;strokeColor=none;html=1;fontColor=#596780;align=center;verticalAlign=middle;fontStyle=0;fontSize=12" vertex="1" parent="1">
          <mxGeometry x="480" y="640" width="86" height="33" as="geometry"/>
        </mxCell>
        <mxCell id="jyvKhXXE0eLRTPu1VaxT-26" value="xxx" style="rounded=1;fillColor=#F1F2F4;strokeColor=none;html=1;fontColor=#596780;align=center;verticalAlign=middle;fontStyle=0;fontSize=12" vertex="1" parent="1">
          <mxGeometry x="360" y="640" width="86" height="33" as="geometry"/>
        </mxCell>
        <mxCell id="jyvKhXXE0eLRTPu1VaxT-27" value="xxx" style="rounded=1;fillColor=#F1F2F4;strokeColor=none;html=1;fontColor=#596780;align=center;verticalAlign=middle;fontStyle=0;fontSize=12" vertex="1" parent="1">
          <mxGeometry x="230" y="640" width="86" height="33" as="geometry"/>
        </mxCell>
        <mxCell id="jyvKhXXE0eLRTPu1VaxT-30" value="&lt;span style=&quot;color: rgb(89 , 103 , 128) ; font-size: 11px ; text-align: left&quot;&gt;前景风格设置&lt;/span&gt;" style="dashed=0;html=1;rounded=1;fillColor=#DFE1E6;strokeColor=#DFE1E6;fontSize=12;align=center;fontStyle=1;strokeWidth=2;fontColor=#42526E" vertex="1" parent="1">
          <mxGeometry x="68" y="80" width="90" height="30" as="geometry"/>
        </mxCell>
        <mxCell id="jyvKhXXE0eLRTPu1VaxT-31" value="ICON位置" style="fillColor=none;strokeColor=none;html=1;fontSize=11;fontStyle=0;align=left;fontColor=#596780;fontStyle=1;fontSize=11" vertex="1" parent="1">
          <mxGeometry x="88" y="225" width="60" height="20" as="geometry"/>
        </mxCell>
        <mxCell id="jyvKhXXE0eLRTPu1VaxT-32" value="45" style="rounded=1;arcSize=9;fillColor=#F7F8F9;align=left;spacingLeft=5;strokeColor=#DEE1E6;html=1;strokeWidth=2;fontSize=12" vertex="1" parent="1">
          <mxGeometry x="188" y="220" width="62" height="20" as="geometry"/>
        </mxCell>
        <mxCell id="jyvKhXXE0eLRTPu1VaxT-37" value="45" style="rounded=1;arcSize=9;fillColor=#F7F8F9;align=left;spacingLeft=5;strokeColor=#DEE1E6;html=1;strokeWidth=2;fontSize=12" vertex="1" parent="1">
          <mxGeometry x="269" y="220" width="62" height="20" as="geometry"/>
        </mxCell>
        <mxCell id="jyvKhXXE0eLRTPu1VaxT-40" value="45" style="rounded=1;arcSize=9;fillColor=#F7F8F9;align=left;spacingLeft=5;strokeColor=#DEE1E6;html=1;strokeWidth=2;fontSize=12" vertex="1" parent="1">
          <mxGeometry x="346.5" y="220" width="62" height="20" as="geometry"/>
        </mxCell>
        <mxCell id="jyvKhXXE0eLRTPu1VaxT-41" value="45" style="rounded=1;arcSize=9;fillColor=#F7F8F9;align=left;spacingLeft=5;strokeColor=#DEE1E6;html=1;strokeWidth=2;fontSize=12" vertex="1" parent="1">
          <mxGeometry x="427.5" y="220" width="62" height="20" as="geometry"/>
        </mxCell>
        <mxCell id="jyvKhXXE0eLRTPu1VaxT-42" value="小地球位置" style="fillColor=none;strokeColor=none;html=1;fontSize=11;fontStyle=0;align=left;fontColor=#596780;fontStyle=1;fontSize=11" vertex="1" parent="1">
          <mxGeometry x="87.5" y="265" width="60" height="20" as="geometry"/>
        </mxCell>
        <mxCell id="jyvKhXXE0eLRTPu1VaxT-43" value="45" style="rounded=1;arcSize=9;fillColor=#F7F8F9;align=left;spacingLeft=5;strokeColor=#DEE1E6;html=1;strokeWidth=2;fontSize=12" vertex="1" parent="1">
          <mxGeometry x="187.5" y="260" width="62" height="20" as="geometry"/>
        </mxCell>
        <mxCell id="jyvKhXXE0eLRTPu1VaxT-44" value="45" style="rounded=1;arcSize=9;fillColor=#F7F8F9;align=left;spacingLeft=5;strokeColor=#DEE1E6;html=1;strokeWidth=2;fontSize=12" vertex="1" parent="1">
          <mxGeometry x="268.5" y="260" width="62" height="20" as="geometry"/>
        </mxCell>
        <mxCell id="jyvKhXXE0eLRTPu1VaxT-45" value="45" style="rounded=1;arcSize=9;fillColor=#F7F8F9;align=left;spacingLeft=5;strokeColor=#DEE1E6;html=1;strokeWidth=2;fontSize=12" vertex="1" parent="1">
          <mxGeometry x="346" y="260" width="62" height="20" as="geometry"/>
        </mxCell>
        <mxCell id="jyvKhXXE0eLRTPu1VaxT-46" value="45" style="rounded=1;arcSize=9;fillColor=#F7F8F9;align=left;spacingLeft=5;strokeColor=#DEE1E6;html=1;strokeWidth=2;fontSize=12" vertex="1" parent="1">
          <mxGeometry x="427" y="260" width="62" height="20" as="geometry"/>
        </mxCell>
        <mxCell id="jyvKhXXE0eLRTPu1VaxT-47" value="主丝印位置" style="fillColor=none;strokeColor=none;html=1;fontSize=11;fontStyle=0;align=left;fontColor=#596780;fontStyle=1;fontSize=11" vertex="1" parent="1">
          <mxGeometry x="88" y="315" width="60" height="20" as="geometry"/>
        </mxCell>
        <mxCell id="jyvKhXXE0eLRTPu1VaxT-48" value="45" style="rounded=1;arcSize=9;fillColor=#F7F8F9;align=left;spacingLeft=5;strokeColor=#DEE1E6;html=1;strokeWidth=2;fontSize=12" vertex="1" parent="1">
          <mxGeometry x="188" y="310" width="62" height="20" as="geometry"/>
        </mxCell>
        <mxCell id="jyvKhXXE0eLRTPu1VaxT-49" value="45" style="rounded=1;arcSize=9;fillColor=#F7F8F9;align=left;spacingLeft=5;strokeColor=#DEE1E6;html=1;strokeWidth=2;fontSize=12" vertex="1" parent="1">
          <mxGeometry x="269" y="310" width="62" height="20" as="geometry"/>
        </mxCell>
        <mxCell id="jyvKhXXE0eLRTPu1VaxT-50" value="45" style="rounded=1;arcSize=9;fillColor=#F7F8F9;align=left;spacingLeft=5;strokeColor=#DEE1E6;html=1;strokeWidth=2;fontSize=12" vertex="1" parent="1">
          <mxGeometry x="346.5" y="310" width="62" height="20" as="geometry"/>
        </mxCell>
        <mxCell id="jyvKhXXE0eLRTPu1VaxT-51" value="45" style="rounded=1;arcSize=9;fillColor=#F7F8F9;align=left;spacingLeft=5;strokeColor=#DEE1E6;html=1;strokeWidth=2;fontSize=12" vertex="1" parent="1">
          <mxGeometry x="427.5" y="310" width="62" height="20" as="geometry"/>
        </mxCell>
        <mxCell id="jyvKhXXE0eLRTPu1VaxT-52" value="主丝印-字体风格" style="fillColor=none;strokeColor=none;html=1;fontSize=11;fontStyle=0;align=left;fontColor=#596780;fontStyle=1;fontSize=11" vertex="1" parent="1">
          <mxGeometry x="68" y="346.5" width="93" height="20" as="geometry"/>
        </mxCell>
        <mxCell id="jyvKhXXE0eLRTPu1VaxT-55" value="中主丝印位置" style="fillColor=none;strokeColor=none;html=1;fontSize=11;fontStyle=0;align=left;fontColor=#596780;fontStyle=1;fontSize=11" vertex="1" parent="1">
          <mxGeometry x="88" y="395" width="60" height="20" as="geometry"/>
        </mxCell>
        <mxCell id="jyvKhXXE0eLRTPu1VaxT-56" value="45" style="rounded=1;arcSize=9;fillColor=#F7F8F9;align=left;spacingLeft=5;strokeColor=#DEE1E6;html=1;strokeWidth=2;fontSize=12" vertex="1" parent="1">
          <mxGeometry x="188" y="390" width="62" height="20" as="geometry"/>
        </mxCell>
        <mxCell id="jyvKhXXE0eLRTPu1VaxT-57" value="45" style="rounded=1;arcSize=9;fillColor=#F7F8F9;align=left;spacingLeft=5;strokeColor=#DEE1E6;html=1;strokeWidth=2;fontSize=12" vertex="1" parent="1">
          <mxGeometry x="269" y="390" width="62" height="20" as="geometry"/>
        </mxCell>
        <mxCell id="jyvKhXXE0eLRTPu1VaxT-58" value="45" style="rounded=1;arcSize=9;fillColor=#F7F8F9;align=left;spacingLeft=5;strokeColor=#DEE1E6;html=1;strokeWidth=2;fontSize=12" vertex="1" parent="1">
          <mxGeometry x="346.5" y="390" width="62" height="20" as="geometry"/>
        </mxCell>
        <mxCell id="jyvKhXXE0eLRTPu1VaxT-59" value="45" style="rounded=1;arcSize=9;fillColor=#F7F8F9;align=left;spacingLeft=5;strokeColor=#DEE1E6;html=1;strokeWidth=2;fontSize=12" vertex="1" parent="1">
          <mxGeometry x="427.5" y="390" width="62" height="20" as="geometry"/>
        </mxCell>
        <mxCell id="jyvKhXXE0eLRTPu1VaxT-60" value="中主丝印-字体风格" style="fillColor=none;strokeColor=none;html=1;fontSize=11;fontStyle=0;align=left;fontColor=#596780;fontStyle=1;fontSize=11" vertex="1" parent="1">
          <mxGeometry x="68.5" y="436.5" width="93" height="20" as="geometry"/>
        </mxCell>
        <mxCell id="jyvKhXXE0eLRTPu1VaxT-61" value="字体风格中选择" style="rounded=1;fillColor=#F1F2F4;strokeColor=none;html=1;fontColor=#596780;align=left;fontSize=12;spacingLeft=10" vertex="1" parent="1">
          <mxGeometry x="188" y="430" width="142" height="30" as="geometry"/>
        </mxCell>
        <mxCell id="jyvKhXXE0eLRTPu1VaxT-62" value="" style="shape=triangle;direction=south;fillColor=#596780;strokeColor=none;html=1" vertex="1" parent="jyvKhXXE0eLRTPu1VaxT-61">
          <mxGeometry x="1" y="0.5" width="12" height="6" relative="1" as="geometry">
            <mxPoint x="-20" y="-3" as="offset"/>
          </mxGeometry>
        </mxCell>
        <mxCell id="jyvKhXXE0eLRTPu1VaxT-63" value="副丝印位置" style="fillColor=none;strokeColor=none;html=1;fontSize=11;fontStyle=0;align=left;fontColor=#596780;fontStyle=1;fontSize=11" vertex="1" parent="1">
          <mxGeometry x="88" y="485" width="60" height="20" as="geometry"/>
        </mxCell>
        <mxCell id="jyvKhXXE0eLRTPu1VaxT-64" value="45" style="rounded=1;arcSize=9;fillColor=#F7F8F9;align=left;spacingLeft=5;strokeColor=#DEE1E6;html=1;strokeWidth=2;fontSize=12" vertex="1" parent="1">
          <mxGeometry x="188" y="480" width="62" height="20" as="geometry"/>
        </mxCell>
        <mxCell id="jyvKhXXE0eLRTPu1VaxT-65" value="45" style="rounded=1;arcSize=9;fillColor=#F7F8F9;align=left;spacingLeft=5;strokeColor=#DEE1E6;html=1;strokeWidth=2;fontSize=12" vertex="1" parent="1">
          <mxGeometry x="269" y="480" width="62" height="20" as="geometry"/>
        </mxCell>
        <mxCell id="jyvKhXXE0eLRTPu1VaxT-66" value="45" style="rounded=1;arcSize=9;fillColor=#F7F8F9;align=left;spacingLeft=5;strokeColor=#DEE1E6;html=1;strokeWidth=2;fontSize=12" vertex="1" parent="1">
          <mxGeometry x="346.5" y="480" width="62" height="20" as="geometry"/>
        </mxCell>
        <mxCell id="jyvKhXXE0eLRTPu1VaxT-67" value="45" style="rounded=1;arcSize=9;fillColor=#F7F8F9;align=left;spacingLeft=5;strokeColor=#DEE1E6;html=1;strokeWidth=2;fontSize=12" vertex="1" parent="1">
          <mxGeometry x="427.5" y="480" width="62" height="20" as="geometry"/>
        </mxCell>
        <mxCell id="jyvKhXXE0eLRTPu1VaxT-68" value="副丝印-字体风格" style="fillColor=none;strokeColor=none;html=1;fontSize=11;fontStyle=0;align=left;fontColor=#596780;fontStyle=1;fontSize=11" vertex="1" parent="1">
          <mxGeometry x="68.5" y="526.5" width="93" height="20" as="geometry"/>
        </mxCell>
        <mxCell id="jyvKhXXE0eLRTPu1VaxT-69" value="字体风格中选择" style="rounded=1;fillColor=#F1F2F4;strokeColor=none;html=1;fontColor=#596780;align=left;fontSize=12;spacingLeft=10" vertex="1" parent="1">
          <mxGeometry x="188" y="520" width="142" height="30" as="geometry"/>
        </mxCell>
        <mxCell id="jyvKhXXE0eLRTPu1VaxT-70" value="" style="shape=triangle;direction=south;fillColor=#596780;strokeColor=none;html=1" vertex="1" parent="jyvKhXXE0eLRTPu1VaxT-69">
          <mxGeometry x="1" y="0.5" width="12" height="6" relative="1" as="geometry">
            <mxPoint x="-20" y="-3" as="offset"/>
          </mxGeometry>
        </mxCell>
        <mxCell id="jyvKhXXE0eLRTPu1VaxT-71" value="字体风格中选择" style="rounded=1;fillColor=#F1F2F4;strokeColor=none;html=1;fontColor=#596780;align=left;fontSize=12;spacingLeft=10" vertex="1" parent="1">
          <mxGeometry x="188.5" y="341.5" width="142" height="30" as="geometry"/>
        </mxCell>
        <mxCell id="jyvKhXXE0eLRTPu1VaxT-72" value="" style="shape=triangle;direction=south;fillColor=#596780;strokeColor=none;html=1" vertex="1" parent="jyvKhXXE0eLRTPu1VaxT-71">
          <mxGeometry x="1" y="0.5" width="12" height="6" relative="1" as="geometry">
            <mxPoint x="-20" y="-3" as="offset"/>
          </mxGeometry>
        </mxCell>
      </root>
    </mxGraphModel>
  </diagram>
</mxfile>
